<svg xmlns="http://www.w3.org/2000/svg" xmlns:xlink="http://www.w3.org/1999/xlink" xmlns:lucid="lucid" width="1263.62" height="624.01"><g transform="translate(-706.5 -44.5)" lucid:page-tab-id="0_0"><path d="M796 438.04c0 18.77-15.22 34-34 34s-34-15.23-34-34c0-18.78 15.22-34 34-34s34 15.22 34 34z" stroke="#000" stroke-opacity="0" stroke-width="3" fill="#33a02c"/><path d="M962 221.68c12.15 0 22 9.85 22 22 0 12.14-9.85 22-22 22H750c-12.15 0-22-9.86-22-22 0-12.15 9.85-22 22-22z" fill="#dd3497" fill-opacity=".7"/><path d="M1024 196.67a6 6 0 0 1 6-6h631.9a6 6 0 0 1 6 6v94a6 6 0 0 1-6 6H1030a6 6 0 0 1-6-6z" fill="none"/><use xlink:href="#a" transform="matrix(1,0,0,1,1028.9999999999995,195.66916666666663) translate(0 56.5)"/><use xlink:href="#b" transform="matrix(1,0,0,1,1028.9999999999995,195.66916666666663) translate(33.33333333333333 56.5)"/><use xlink:href="#c" transform="matrix(1,0,0,1,1028.9999999999995,195.66916666666663) translate(77.77777777777777 56.5)"/><use xlink:href="#d" transform="matrix(1,0,0,1,1028.9999999999995,195.66916666666663) translate(211 56.5)"/><use xlink:href="#e" transform="matrix(1,0,0,1,1028.9999999999995,195.66916666666663) translate(311 56.5)"/><path d="M777.33 138.67c0 13.62-11.04 24.66-24.66 24.66-13.63 0-24.67-11.04-24.67-24.66 0-13.63 11.04-24.67 24.67-24.67 13.62 0 24.66 11.04 24.66 24.67zM868 127.33c0 19.9-16.12 36-36 36s-36-16.1-36-36c0-19.88 16.12-36 36-36s36 16.12 36 36zM984 114.67c0 26.87-21.8 48.66-48.67 48.66-26.88 0-48.66-21.8-48.66-48.66 0-26.88 21.8-48.67 48.66-48.67C962.2 66 984 87.8 984 114.67z" stroke="#000" stroke-opacity="0" stroke-width="3" fill="#fc9432"/><path d="M1024 91.66a6 6 0 0 1 6-6h631.9a6 6 0 0 1 6 6v94a6 6 0 0 1-6 6H1030a6 6 0 0 1-6-6z" fill="none"/><use xlink:href="#a" transform="matrix(1,0,0,1,1028.9999999999995,90.6616666666665) translate(0 56.5)"/><use xlink:href="#b" transform="matrix(1,0,0,1,1028.9999999999995,90.6616666666665) translate(33.33333333333333 56.5)"/><use xlink:href="#f" transform="matrix(1,0,0,1,1028.9999999999995,90.6616666666665) translate(77.77777777777777 56.5)"/><use xlink:href="#g" transform="matrix(1,0,0,1,1028.9999999999995,90.6616666666665) translate(197.77777777777777 56.5)"/><use xlink:href="#h" transform="matrix(1,0,0,1,1028.9999999999995,90.6616666666665) translate(337.55555555555554 56.5)"/><use xlink:href="#i" transform="matrix(1,0,0,1,1028.9999999999995,90.6616666666665) translate(393.1111111111111 56.5)"/><path d="M796 358c0 18.8-15.22 34-34 34s-34-15.2-34-34c0-18.76 15.22-34 34-34s34 15.24 34 34z" stroke="#000" stroke-opacity="0" stroke-width="3" fill="#a6cee3"/><path d="M796 528c0 18.8-15.22 34-34 34s-34-15.2-34-34c0-18.76 15.22-34 34-34s34 15.24 34 34z" stroke="#000" stroke-opacity="0" stroke-width="3" fill="#b2df8a"/><path d="M796 613c0 18.8-15.22 34-34 34s-34-15.2-34-34c0-18.76 15.22-34 34-34s34 15.24 34 34z" stroke="#000" stroke-opacity="0" stroke-width="3" fill="#1f78b4"/><path d="M812 335a6 6 0 0 1 6-6h781.17a6 6 0 0 1 6 6v46a6 6 0 0 1-6 6H818a6 6 0 0 1-6-6z" fill="none"/><g><use xlink:href="#j" transform="matrix(1,0,0,1,817,333.995) translate(0 32.5)"/><use xlink:href="#b" transform="matrix(1,0,0,1,817,333.995) translate(195.22222222222223 32.5)"/><use xlink:href="#k" transform="matrix(1,0,0,1,817,333.995) translate(239.66666666666669 32.5)"/><use xlink:href="#l" transform="matrix(1,0,0,1,817,333.995) translate(583.3333333333333 32.5)"/></g><path d="M812 505a6 6 0 0 1 6-6h1088.1a6 6 0 0 1 6 6v46.02a6 6 0 0 1-6 6H818a6 6 0 0 1-6-6z" fill="none"/><g><use xlink:href="#j" transform="matrix(1,0,0,1,817.0000000000002,504.015) translate(0 32.5)"/><use xlink:href="#b" transform="matrix(1,0,0,1,817.0000000000002,504.015) translate(195.22222222222223 32.5)"/><use xlink:href="#m" transform="matrix(1,0,0,1,817.0000000000002,504.015) translate(239.66666666666669 32.5)"/><use xlink:href="#n" transform="matrix(1,0,0,1,817.0000000000002,504.015) translate(643.3333333333334 32.5)"/><use xlink:href="#o" transform="matrix(1,0,0,1,817.0000000000002,504.015) translate(738.6666666666667 32.5)"/></g><path d="M812 590.02a6 6 0 0 1 6-6h989.03a6 6 0 0 1 6 6v46a6 6 0 0 1-6 6H818a6 6 0 0 1-6-6z" fill="none"/><g><use xlink:href="#j" transform="matrix(1,0,0,1,817,589.025) translate(0 32.5)"/><use xlink:href="#b" transform="matrix(1,0,0,1,817,589.025) translate(195.22222222222223 32.5)"/><use xlink:href="#p" transform="matrix(1,0,0,1,817,589.025) translate(239.66666666666669 32.5)"/><use xlink:href="#l" transform="matrix(1,0,0,1,817,589.025) translate(590.1111111111111 32.5)"/></g><path d="M812 420a6 6 0 0 1 6-6h1126.12a6 6 0 0 1 6 6v46a6 6 0 0 1-6 6H818a6 6 0 0 1-6-6z" fill="none"/><g><use xlink:href="#j" transform="matrix(1,0,0,1,817.0000000000002,419.005) translate(0 32.5)"/><use xlink:href="#b" transform="matrix(1,0,0,1,817.0000000000002,419.005) translate(195.22222222222223 32.5)"/><use xlink:href="#q" transform="matrix(1,0,0,1,817.0000000000002,419.005) translate(239.66666666666669 32.5)"/><use xlink:href="#r" transform="matrix(1,0,0,1,817.0000000000002,419.005) translate(499.22222222222223 32.5)"/><use xlink:href="#s" transform="matrix(1,0,0,1,817.0000000000002,419.005) translate(685.4444444444445 32.5)"/><use xlink:href="#l" transform="matrix(1,0,0,1,817.0000000000002,419.005) translate(827.4444444444445 32.5)"/></g><defs><path d="M158-156l-14 65h45v19h-49L124 0h-19l15-72H56L41 0H22l15-72H2v-19h39l14-65H11v-19h48l15-71h20l-16 71h64l16-71h19l-16 71h37v19h-40zm-83 0L61-91h63l14-65H75" id="t"/><use transform="matrix(0.1111111111111111,0,0,0.1111111111111111,0,0)" xlink:href="#t" id="a"/><path d="M100-194c62-1 85 37 85 99 1 63-27 99-86 99S16-35 15-95c0-66 28-99 85-99zM99-20c44 1 53-31 53-75 0-43-8-75-51-75s-53 32-53 75 10 74 51 75" id="u"/><path d="M101-234c-31-9-42 10-38 44h38v23H63V0H32v-167H5v-23h27c-7-52 17-82 69-68v24" id="v"/><g id="b"><use transform="matrix(0.1111111111111111,0,0,0.1111111111111111,0,0)" xlink:href="#u"/><use transform="matrix(0.1111111111111111,0,0,0.1111111111111111,22.22222222222222,0)" xlink:href="#v"/></g><path d="M135-143c-3-34-86-38-87 0 15 53 115 12 119 90S17 21 10-45l28-5c4 36 97 45 98 0-10-56-113-15-118-90-4-57 82-63 122-42 12 7 21 19 24 35" id="w"/><path d="M106-169C34-169 62-67 57 0H25v-261h32l-1 103c12-21 28-36 61-36 89 0 53 116 60 194h-32v-121c2-32-8-49-39-48" id="x"/><path d="M141-36C126-15 110 5 73 4 37 3 15-17 15-53c-1-64 63-63 125-63 3-35-9-54-41-54-24 1-41 7-42 31l-33-3c5-37 33-52 76-52 45 0 72 20 72 64v82c-1 20 7 32 28 27v20c-31 9-61-2-59-35zM48-53c0 20 12 33 32 33 41-3 63-29 60-74-43 2-92-5-92 41" id="y"/><path d="M114-163C36-179 61-72 57 0H25l-1-190h30c1 12-1 29 2 39 6-27 23-49 58-41v29" id="z"/><path d="M100-194c63 0 86 42 84 106H49c0 40 14 67 53 68 26 1 43-12 49-29l28 8c-11 28-37 45-77 45C44 4 14-33 15-96c1-61 26-98 85-98zm52 81c6-60-76-77-97-28-3 7-6 17-6 28h103" id="A"/><path d="M85-194c31 0 48 13 60 33l-1-100h32l1 261h-30c-2-10 0-23-3-31C134-8 116 4 85 4 32 4 16-35 15-94c0-66 23-100 70-100zm9 24c-40 0-46 34-46 75 0 40 6 74 45 74 42 0 51-32 51-76 0-42-9-74-50-73" id="B"/><g id="c"><use transform="matrix(0.1111111111111111,0,0,0.1111111111111111,0,0)" xlink:href="#w"/><use transform="matrix(0.1111111111111111,0,0,0.1111111111111111,20,0)" xlink:href="#x"/><use transform="matrix(0.1111111111111111,0,0,0.1111111111111111,42.22222222222222,0)" xlink:href="#y"/><use transform="matrix(0.1111111111111111,0,0,0.1111111111111111,64.44444444444444,0)" xlink:href="#z"/><use transform="matrix(0.1111111111111111,0,0,0.1111111111111111,77.66666666666666,0)" xlink:href="#A"/><use transform="matrix(0.1111111111111111,0,0,0.1111111111111111,99.88888888888889,0)" xlink:href="#B"/></g><path d="M177-190C167-65 218 103 67 71c-23-6-38-20-44-43l32-5c15 47 100 32 89-28v-30C133-14 115 1 83 1 29 1 15-40 15-95c0-56 16-97 71-98 29-1 48 16 59 35 1-10 0-23 2-32h30zM94-22c36 0 50-32 50-73 0-42-14-75-50-75-39 0-46 34-46 75s6 73 46 73" id="C"/><path d="M117-194c89-4 53 116 60 194h-32v-121c0-31-8-49-39-48C34-167 62-67 57 0H25l-1-190h30c1 10-1 24 2 32 11-22 29-35 61-36" id="D"/><g id="d"><use transform="matrix(0.1111111111111111,0,0,0.1111111111111111,0,0)" xlink:href="#C"/><use transform="matrix(0.1111111111111111,0,0,0.1111111111111111,22.22222222222222,0)" xlink:href="#A"/><use transform="matrix(0.1111111111111111,0,0,0.1111111111111111,44.44444444444444,0)" xlink:href="#D"/><use transform="matrix(0.1111111111111111,0,0,0.1111111111111111,66.66666666666666,0)" xlink:href="#A"/></g><path d="M59-47c-2 24 18 29 38 22v24C64 9 27 4 27-40v-127H5v-23h24l9-43h21v43h35v23H59v120" id="E"/><path d="M24 0v-261h32V0H24" id="F"/><path d="M24-231v-30h32v30H24zM24 0v-190h32V0H24" id="G"/><g id="e"><use transform="matrix(0.1111111111111111,0,0,0.1111111111111111,0,0)" xlink:href="#u"/><use transform="matrix(0.1111111111111111,0,0,0.1111111111111111,22.22222222222222,0)" xlink:href="#D"/><use transform="matrix(0.1111111111111111,0,0,0.1111111111111111,44.44444444444444,0)" xlink:href="#E"/><use transform="matrix(0.1111111111111111,0,0,0.1111111111111111,55.55555555555556,0)" xlink:href="#u"/><use transform="matrix(0.1111111111111111,0,0,0.1111111111111111,77.77777777777777,0)" xlink:href="#F"/><use transform="matrix(0.1111111111111111,0,0,0.1111111111111111,86.55555555555554,0)" xlink:href="#u"/><use transform="matrix(0.1111111111111111,0,0,0.1111111111111111,108.77777777777777,0)" xlink:href="#C"/><use transform="matrix(0.1111111111111111,0,0,0.1111111111111111,131,0)" xlink:href="#G"/><use transform="matrix(0.1111111111111111,0,0,0.1111111111111111,139.77777777777777,0)" xlink:href="#A"/><use transform="matrix(0.1111111111111111,0,0,0.1111111111111111,162,0)" xlink:href="#w"/></g><g id="f"><use transform="matrix(0.1111111111111111,0,0,0.1111111111111111,0,0)" xlink:href="#D"/><use transform="matrix(0.1111111111111111,0,0,0.1111111111111111,22.22222222222222,0)" xlink:href="#u"/><use transform="matrix(0.1111111111111111,0,0,0.1111111111111111,44.44444444444444,0)" xlink:href="#B"/><use transform="matrix(0.1111111111111111,0,0,0.1111111111111111,66.66666666666666,0)" xlink:href="#A"/><use transform="matrix(0.1111111111111111,0,0,0.1111111111111111,88.88888888888889,0)" xlink:href="#w"/></g><path d="M210-169c-67 3-38 105-44 169h-31v-121c0-29-5-50-35-48C34-165 62-65 56 0H25l-1-190h30c1 10-1 24 2 32 10-44 99-50 107 0 11-21 27-35 58-36 85-2 47 119 55 194h-31v-121c0-29-5-49-35-48" id="H"/><path d="M143 0L79-87 56-68V0H24v-261h32v163l83-92h37l-77 82L181 0h-38" id="I"/><g id="g"><use transform="matrix(0.1111111111111111,0,0,0.1111111111111111,0,0)" xlink:href="#H"/><use transform="matrix(0.1111111111111111,0,0,0.1111111111111111,33.22222222222222,0)" xlink:href="#y"/><use transform="matrix(0.1111111111111111,0,0,0.1111111111111111,55.44444444444444,0)" xlink:href="#I"/><use transform="matrix(0.1111111111111111,0,0,0.1111111111111111,75.44444444444444,0)" xlink:href="#G"/><use transform="matrix(0.1111111111111111,0,0,0.1111111111111111,84.22222222222221,0)" xlink:href="#D"/><use transform="matrix(0.1111111111111111,0,0,0.1111111111111111,106.44444444444443,0)" xlink:href="#C"/></g><path d="M84 4C-5 8 30-112 23-190h32v120c0 31 7 50 39 49 72-2 45-101 50-169h31l1 190h-30c-1-10 1-25-2-33-11 22-28 36-60 37" id="J"/><path d="M115-194c55 1 70 41 70 98S169 2 115 4C84 4 66-9 55-30l1 105H24l-1-265h31l2 30c10-21 28-34 59-34zm-8 174c40 0 45-34 45-75s-6-73-45-74c-42 0-51 32-51 76 0 43 10 73 51 73" id="K"/><g id="h"><use transform="matrix(0.1111111111111111,0,0,0.1111111111111111,0,0)" xlink:href="#J"/><use transform="matrix(0.1111111111111111,0,0,0.1111111111111111,22.22222222222222,0)" xlink:href="#K"/></g><path d="M96-169c-40 0-48 33-48 73s9 75 48 75c24 0 41-14 43-38l32 2c-6 37-31 61-74 61-59 0-76-41-82-99-10-93 101-131 147-64 4 7 5 14 7 22l-32 3c-4-21-16-35-41-35" id="L"/><g id="i"><use transform="matrix(0.1111111111111111,0,0,0.1111111111111111,0,0)" xlink:href="#L"/><use transform="matrix(0.1111111111111111,0,0,0.1111111111111111,20,0)" xlink:href="#F"/><use transform="matrix(0.1111111111111111,0,0,0.1111111111111111,28.777777777777775,0)" xlink:href="#J"/><use transform="matrix(0.1111111111111111,0,0,0.1111111111111111,51,0)" xlink:href="#w"/><use transform="matrix(0.1111111111111111,0,0,0.1111111111111111,71,0)" xlink:href="#E"/><use transform="matrix(0.1111111111111111,0,0,0.1111111111111111,82.11111111111111,0)" xlink:href="#A"/><use transform="matrix(0.1111111111111111,0,0,0.1111111111111111,104.33333333333334,0)" xlink:href="#z"/></g><path d="M30-248c87 1 191-15 191 75 0 78-77 80-158 76V0H30v-248zm33 125c57 0 124 11 124-50 0-59-68-47-124-48v98" id="M"/><g id="j"><use transform="matrix(0.1111111111111111,0,0,0.1111111111111111,0,0)" xlink:href="#M"/><use transform="matrix(0.1111111111111111,0,0,0.1111111111111111,26.666666666666664,0)" xlink:href="#z"/><use transform="matrix(0.1111111111111111,0,0,0.1111111111111111,39.888888888888886,0)" xlink:href="#u"/><use transform="matrix(0.1111111111111111,0,0,0.1111111111111111,62.11111111111111,0)" xlink:href="#K"/><use transform="matrix(0.1111111111111111,0,0,0.1111111111111111,84.33333333333333,0)" xlink:href="#u"/><use transform="matrix(0.1111111111111111,0,0,0.1111111111111111,106.55555555555554,0)" xlink:href="#z"/><use transform="matrix(0.1111111111111111,0,0,0.1111111111111111,119.77777777777777,0)" xlink:href="#E"/><use transform="matrix(0.1111111111111111,0,0,0.1111111111111111,130.88888888888889,0)" xlink:href="#G"/><use transform="matrix(0.1111111111111111,0,0,0.1111111111111111,139.66666666666666,0)" xlink:href="#u"/><use transform="matrix(0.1111111111111111,0,0,0.1111111111111111,161.88888888888889,0)" xlink:href="#D"/></g><path d="M30-248c118-7 216 8 213 122C240-48 200 0 122 0H30v-248zM63-27c89 8 146-16 146-99s-60-101-146-95v194" id="N"/><path d="M143 4C61 4 22-44 18-125c-5-107 100-154 193-111 17 8 29 25 37 43l-32 9c-13-25-37-40-76-40-61 0-88 39-88 99 0 61 29 100 91 101 35 0 62-11 79-27v-45h-74v-28h105v86C228-13 192 4 143 4" id="O"/><path d="M190 0L58-211 59 0H30v-248h39L202-35l-2-213h31V0h-41" id="P"/><path d="M30 0v-248h187v28H63v79h144v27H63v87h162V0H30" id="Q"/><path d="M127-220V0H93v-220H8v-28h204v28h-85" id="R"/><path d="M16-82v-28h88v28H16" id="S"/><path d="M108 0H70L1-190h34L89-25l56-165h34" id="T"/><g id="k"><use transform="matrix(0.1111111111111111,0,0,0.1111111111111111,0,0)" xlink:href="#N"/><use transform="matrix(0.1111111111111111,0,0,0.1111111111111111,28.777777777777775,0)" xlink:href="#G"/><use transform="matrix(0.1111111111111111,0,0,0.1111111111111111,37.55555555555555,0)" xlink:href="#w"/><use transform="matrix(0.1111111111111111,0,0,0.1111111111111111,57.55555555555555,0)" xlink:href="#O"/><use transform="matrix(0.1111111111111111,0,0,0.1111111111111111,88.66666666666666,0)" xlink:href="#A"/><use transform="matrix(0.1111111111111111,0,0,0.1111111111111111,110.88888888888889,0)" xlink:href="#P"/><use transform="matrix(0.1111111111111111,0,0,0.1111111111111111,139.66666666666666,0)" xlink:href="#Q"/><use transform="matrix(0.1111111111111111,0,0,0.1111111111111111,166.33333333333331,0)" xlink:href="#R"/><use transform="matrix(0.1111111111111111,0,0,0.1111111111111111,188.44444444444443,0)" xlink:href="#S"/><use transform="matrix(0.1111111111111111,0,0,0.1111111111111111,201.66666666666666,0)" xlink:href="#B"/><use transform="matrix(0.1111111111111111,0,0,0.1111111111111111,223.88888888888889,0)" xlink:href="#A"/><use transform="matrix(0.1111111111111111,0,0,0.1111111111111111,246.1111111111111,0)" xlink:href="#z"/><use transform="matrix(0.1111111111111111,0,0,0.1111111111111111,259.3333333333333,0)" xlink:href="#G"/><use transform="matrix(0.1111111111111111,0,0,0.1111111111111111,268.1111111111111,0)" xlink:href="#T"/><use transform="matrix(0.1111111111111111,0,0,0.1111111111111111,288.1111111111111,0)" xlink:href="#A"/><use transform="matrix(0.1111111111111111,0,0,0.1111111111111111,310.3333333333333,0)" xlink:href="#B"/></g><g id="l"><use transform="matrix(0.1111111111111111,0,0,0.1111111111111111,0,0)" xlink:href="#D"/><use transform="matrix(0.1111111111111111,0,0,0.1111111111111111,22.22222222222222,0)" xlink:href="#u"/><use transform="matrix(0.1111111111111111,0,0,0.1111111111111111,44.44444444444444,0)" xlink:href="#B"/><use transform="matrix(0.1111111111111111,0,0,0.1111111111111111,66.66666666666666,0)" xlink:href="#A"/><use transform="matrix(0.1111111111111111,0,0,0.1111111111111111,88.88888888888889,0)" xlink:href="#w"/></g><path d="M266 0h-40l-56-210L115 0H75L2-248h35L96-30l15-64 43-154h32l59 218 59-218h35" id="U"/><path d="M206 0h-36l-40-164L89 0H53L-1-190h32L70-26l43-164h34l41 164 42-164h31" id="V"/><path d="M179-190L93 31C79 59 56 82 12 73V49c39 6 53-20 64-50L1-190h34L92-34l54-156h33" id="W"/><g id="m"><use transform="matrix(0.1111111111111111,0,0,0.1111111111111111,0,0)" xlink:href="#U"/><use transform="matrix(0.1111111111111111,0,0,0.1111111111111111,37.666666666666664,0)" xlink:href="#G"/><use transform="matrix(0.1111111111111111,0,0,0.1111111111111111,46.44444444444444,0)" xlink:href="#I"/><use transform="matrix(0.1111111111111111,0,0,0.1111111111111111,66.44444444444444,0)" xlink:href="#G"/><use transform="matrix(0.1111111111111111,0,0,0.1111111111111111,75.22222222222221,0)" xlink:href="#M"/><use transform="matrix(0.1111111111111111,0,0,0.1111111111111111,101.88888888888889,0)" xlink:href="#y"/><use transform="matrix(0.1111111111111111,0,0,0.1111111111111111,124.1111111111111,0)" xlink:href="#E"/><use transform="matrix(0.1111111111111111,0,0,0.1111111111111111,135.22222222222223,0)" xlink:href="#x"/><use transform="matrix(0.1111111111111111,0,0,0.1111111111111111,157.44444444444446,0)" xlink:href="#V"/><use transform="matrix(0.1111111111111111,0,0,0.1111111111111111,186.22222222222223,0)" xlink:href="#y"/><use transform="matrix(0.1111111111111111,0,0,0.1111111111111111,208.44444444444446,0)" xlink:href="#W"/><use transform="matrix(0.1111111111111111,0,0,0.1111111111111111,228.44444444444449,0)" xlink:href="#w"/><use transform="matrix(0.1111111111111111,0,0,0.1111111111111111,248.44444444444449,0)" xlink:href="#S"/><use transform="matrix(0.1111111111111111,0,0,0.1111111111111111,261.6666666666667,0)" xlink:href="#B"/><use transform="matrix(0.1111111111111111,0,0,0.1111111111111111,283.8888888888889,0)" xlink:href="#A"/><use transform="matrix(0.1111111111111111,0,0,0.1111111111111111,306.11111111111114,0)" xlink:href="#z"/><use transform="matrix(0.1111111111111111,0,0,0.1111111111111111,319.33333333333337,0)" xlink:href="#G"/><use transform="matrix(0.1111111111111111,0,0,0.1111111111111111,328.11111111111114,0)" xlink:href="#T"/><use transform="matrix(0.1111111111111111,0,0,0.1111111111111111,348.11111111111114,0)" xlink:href="#A"/><use transform="matrix(0.1111111111111111,0,0,0.1111111111111111,370.33333333333337,0)" xlink:href="#B"/></g><path d="M212-179c-10-28-35-45-73-45-59 0-87 40-87 99 0 60 29 101 89 101 43 0 62-24 78-52l27 14C228-24 195 4 139 4 59 4 22-46 18-125c-6-104 99-153 187-111 19 9 31 26 39 46" id="X"/><path d="M137 0h-34L2-248h35l83 218 83-218h36" id="Y"/><g id="n"><use transform="matrix(0.1111111111111111,0,0,0.1111111111111111,0,0)" xlink:href="#X"/><use transform="matrix(0.1111111111111111,0,0,0.1111111111111111,28.777777777777775,0)" xlink:href="#P"/><use transform="matrix(0.1111111111111111,0,0,0.1111111111111111,57.55555555555555,0)" xlink:href="#Y"/></g><g id="o"><use transform="matrix(0.1111111111111111,0,0,0.1111111111111111,0,0)" xlink:href="#D"/><use transform="matrix(0.1111111111111111,0,0,0.1111111111111111,22.22222222222222,0)" xlink:href="#u"/><use transform="matrix(0.1111111111111111,0,0,0.1111111111111111,44.44444444444444,0)" xlink:href="#B"/><use transform="matrix(0.1111111111111111,0,0,0.1111111111111111,66.66666666666666,0)" xlink:href="#A"/><use transform="matrix(0.1111111111111111,0,0,0.1111111111111111,88.88888888888889,0)" xlink:href="#w"/></g><path d="M115-194c53 0 69 39 70 98 0 66-23 100-70 100C84 3 66-7 56-30L54 0H23l1-261h32v101c10-23 28-34 59-34zm-8 174c40 0 45-34 45-75 0-40-5-75-45-74-42 0-51 32-51 76 0 43 10 73 51 73" id="Z"/><g id="p"><use transform="matrix(0.1111111111111111,0,0,0.1111111111111111,0,0)" xlink:href="#M"/><use transform="matrix(0.1111111111111111,0,0,0.1111111111111111,26.666666666666664,0)" xlink:href="#J"/><use transform="matrix(0.1111111111111111,0,0,0.1111111111111111,48.888888888888886,0)" xlink:href="#Z"/><use transform="matrix(0.1111111111111111,0,0,0.1111111111111111,71.11111111111111,0)" xlink:href="#F"/><use transform="matrix(0.1111111111111111,0,0,0.1111111111111111,79.88888888888889,0)" xlink:href="#G"/><use transform="matrix(0.1111111111111111,0,0,0.1111111111111111,88.66666666666666,0)" xlink:href="#L"/><use transform="matrix(0.1111111111111111,0,0,0.1111111111111111,108.66666666666666,0)" xlink:href="#y"/><use transform="matrix(0.1111111111111111,0,0,0.1111111111111111,130.88888888888889,0)" xlink:href="#E"/><use transform="matrix(0.1111111111111111,0,0,0.1111111111111111,142,0)" xlink:href="#G"/><use transform="matrix(0.1111111111111111,0,0,0.1111111111111111,150.77777777777777,0)" xlink:href="#u"/><use transform="matrix(0.1111111111111111,0,0,0.1111111111111111,173,0)" xlink:href="#D"/><use transform="matrix(0.1111111111111111,0,0,0.1111111111111111,195.22222222222223,0)" xlink:href="#S"/><use transform="matrix(0.1111111111111111,0,0,0.1111111111111111,208.44444444444446,0)" xlink:href="#B"/><use transform="matrix(0.1111111111111111,0,0,0.1111111111111111,230.6666666666667,0)" xlink:href="#A"/><use transform="matrix(0.1111111111111111,0,0,0.1111111111111111,252.8888888888889,0)" xlink:href="#z"/><use transform="matrix(0.1111111111111111,0,0,0.1111111111111111,266.11111111111114,0)" xlink:href="#G"/><use transform="matrix(0.1111111111111111,0,0,0.1111111111111111,274.8888888888889,0)" xlink:href="#T"/><use transform="matrix(0.1111111111111111,0,0,0.1111111111111111,294.8888888888889,0)" xlink:href="#A"/><use transform="matrix(0.1111111111111111,0,0,0.1111111111111111,317.11111111111114,0)" xlink:href="#B"/></g><g id="q"><use transform="matrix(0.1111111111111111,0,0,0.1111111111111111,0,0)" xlink:href="#U"/><use transform="matrix(0.1111111111111111,0,0,0.1111111111111111,37.666666666666664,0)" xlink:href="#G"/><use transform="matrix(0.1111111111111111,0,0,0.1111111111111111,46.44444444444444,0)" xlink:href="#I"/><use transform="matrix(0.1111111111111111,0,0,0.1111111111111111,66.44444444444444,0)" xlink:href="#G"/><use transform="matrix(0.1111111111111111,0,0,0.1111111111111111,75.22222222222221,0)" xlink:href="#M"/><use transform="matrix(0.1111111111111111,0,0,0.1111111111111111,101.88888888888889,0)" xlink:href="#y"/><use transform="matrix(0.1111111111111111,0,0,0.1111111111111111,124.1111111111111,0)" xlink:href="#E"/><use transform="matrix(0.1111111111111111,0,0,0.1111111111111111,135.22222222222223,0)" xlink:href="#x"/><use transform="matrix(0.1111111111111111,0,0,0.1111111111111111,157.44444444444446,0)" xlink:href="#V"/><use transform="matrix(0.1111111111111111,0,0,0.1111111111111111,186.22222222222223,0)" xlink:href="#y"/><use transform="matrix(0.1111111111111111,0,0,0.1111111111111111,208.44444444444446,0)" xlink:href="#W"/><use transform="matrix(0.1111111111111111,0,0,0.1111111111111111,228.44444444444449,0)" xlink:href="#w"/></g><g id="r"><use transform="matrix(0.1111111111111111,0,0,0.1111111111111111,0,0)" xlink:href="#D"/><use transform="matrix(0.1111111111111111,0,0,0.1111111111111111,22.22222222222222,0)" xlink:href="#u"/><use transform="matrix(0.1111111111111111,0,0,0.1111111111111111,44.44444444444444,0)" xlink:href="#D"/><use transform="matrix(0.1111111111111111,0,0,0.1111111111111111,66.66666666666666,0)" xlink:href="#S"/><use transform="matrix(0.1111111111111111,0,0,0.1111111111111111,79.88888888888889,0)" xlink:href="#X"/><use transform="matrix(0.1111111111111111,0,0,0.1111111111111111,108.66666666666666,0)" xlink:href="#P"/><use transform="matrix(0.1111111111111111,0,0,0.1111111111111111,137.44444444444443,0)" xlink:href="#Y"/><use transform="matrix(0.1111111111111111,0,0,0.1111111111111111,161.88888888888886,0)" xlink:href="#S"/></g><g id="s"><use transform="matrix(0.1111111111111111,0,0,0.1111111111111111,0,0)" xlink:href="#B"/><use transform="matrix(0.1111111111111111,0,0,0.1111111111111111,22.22222222222222,0)" xlink:href="#A"/><use transform="matrix(0.1111111111111111,0,0,0.1111111111111111,44.44444444444444,0)" xlink:href="#z"/><use transform="matrix(0.1111111111111111,0,0,0.1111111111111111,57.666666666666664,0)" xlink:href="#G"/><use transform="matrix(0.1111111111111111,0,0,0.1111111111111111,66.44444444444444,0)" xlink:href="#T"/><use transform="matrix(0.1111111111111111,0,0,0.1111111111111111,86.44444444444444,0)" xlink:href="#A"/><use transform="matrix(0.1111111111111111,0,0,0.1111111111111111,108.66666666666666,0)" xlink:href="#B"/></g></defs></g></svg>