<svg xmlns="http://www.w3.org/2000/svg" xmlns:xlink="http://www.w3.org/1999/xlink" xmlns:lucid="lucid" width="383.95" height="365"><g transform="translate(-706.5 -302.5)" lucid:page-tab-id="0_0"><path d="M796 358c0 18.78-15.22 34-34 34s-34-15.22-34-34 15.22-34 34-34 34 15.22 34 34z" stroke="#3a414a" stroke-width="3" fill="#a6cee3"/><path d="M796 527.33c0 18.78-15.22 34-34 34s-34-15.22-34-34c0-18.77 15.22-34 34-34s34 15.23 34 34z" stroke="#3a414a" stroke-width="3" fill="#b2df8a"/><path d="M796 442.67c0 18.77-15.22 34-34 34s-34-15.23-34-34c0-18.78 15.22-34 34-34s34 15.22 34 34z" stroke="#3a414a" stroke-width="3" fill="#33a02c"/><path d="M796 612c0 18.78-15.22 34-34 34s-34-15.22-34-34 15.22-34 34-34 34 15.22 34 34z" stroke="#3a414a" stroke-width="3" fill="#1f78b4"/><path d="M812 335a6 6 0 0 1 6-6h188.68a6 6 0 0 1 6 6v46a6 6 0 0 1-6 6H818a6 6 0 0 1-6-6z" fill="none"/><use xlink:href="#a" transform="matrix(1,0,0,1,817,333.995) translate(0 32.5)"/><path d="M812 419.66a6 6 0 0 1 6-6h152a6 6 0 0 1 6 6v46a6 6 0 0 1-6 6H818a6 6 0 0 1-6-6z" fill="none"/><use xlink:href="#b" transform="matrix(1,0,0,1,817,418.6616666666667) translate(0 32.5)"/><path d="M812 504.33a6 6 0 0 1 6-6h246.45a6 6 0 0 1 6 6v46a6 6 0 0 1-6 6H818a6 6 0 0 1-6-6z" fill="none"/><use xlink:href="#c" transform="matrix(1,0,0,1,817,503.3283333333334) translate(0 32.5)"/><path d="M812 589a6 6 0 0 1 6-6h246.45a6 6 0 0 1 6 6v46a6 6 0 0 1-6 6H818a6 6 0 0 1-6-6z" fill="none"/><use xlink:href="#d" transform="matrix(1,0,0,1,817,587.9950000000001) translate(0 32.5)"/><defs><path d="M30-248c118-7 216 8 213 122C240-48 200 0 122 0H30v-248zM63-27c89 8 146-16 146-99s-60-101-146-95v194" id="e"/><path d="M24-231v-30h32v30H24zM24 0v-190h32V0H24" id="f"/><path d="M135-143c-3-34-86-38-87 0 15 53 115 12 119 90S17 21 10-45l28-5c4 36 97 45 98 0-10-56-113-15-118-90-4-57 82-63 122-42 12 7 21 19 24 35" id="g"/><path d="M143 4C61 4 22-44 18-125c-5-107 100-154 193-111 17 8 29 25 37 43l-32 9c-13-25-37-40-76-40-61 0-88 39-88 99 0 61 29 100 91 101 35 0 62-11 79-27v-45h-74v-28h105v86C228-13 192 4 143 4" id="h"/><path d="M100-194c63 0 86 42 84 106H49c0 40 14 67 53 68 26 1 43-12 49-29l28 8c-11 28-37 45-77 45C44 4 14-33 15-96c1-61 26-98 85-98zm52 81c6-60-76-77-97-28-3 7-6 17-6 28h103" id="i"/><path d="M190 0L58-211 59 0H30v-248h39L202-35l-2-213h31V0h-41" id="j"/><path d="M30 0v-248h187v28H63v79h144v27H63v87h162V0H30" id="k"/><path d="M127-220V0H93v-220H8v-28h204v28h-85" id="l"/><g id="a"><use transform="matrix(0.1111111111111111,0,0,0.1111111111111111,0,0)" xlink:href="#e"/><use transform="matrix(0.1111111111111111,0,0,0.1111111111111111,28.777777777777775,0)" xlink:href="#f"/><use transform="matrix(0.1111111111111111,0,0,0.1111111111111111,37.55555555555555,0)" xlink:href="#g"/><use transform="matrix(0.1111111111111111,0,0,0.1111111111111111,57.55555555555555,0)" xlink:href="#h"/><use transform="matrix(0.1111111111111111,0,0,0.1111111111111111,88.66666666666666,0)" xlink:href="#i"/><use transform="matrix(0.1111111111111111,0,0,0.1111111111111111,110.88888888888889,0)" xlink:href="#j"/><use transform="matrix(0.1111111111111111,0,0,0.1111111111111111,139.66666666666666,0)" xlink:href="#k"/><use transform="matrix(0.1111111111111111,0,0,0.1111111111111111,166.33333333333331,0)" xlink:href="#l"/></g><path d="M185-189c-5-48-123-54-124 2 14 75 158 14 163 119 3 78-121 87-175 55-17-10-28-26-33-46l33-7c5 56 141 63 141-1 0-78-155-14-162-118-5-82 145-84 179-34 5 7 8 16 11 25" id="m"/><path d="M233-177c-1 41-23 64-60 70L243 0h-38l-65-103H63V0H30v-248c88 3 205-21 203 71zM63-129c60-2 137 13 137-47 0-61-80-42-137-45v92" id="n"/><path d="M33 0v-248h34V0H33" id="o"/><g id="b"><use transform="matrix(0.1111111111111111,0,0,0.1111111111111111,0,0)" xlink:href="#m"/><use transform="matrix(0.1111111111111111,0,0,0.1111111111111111,26.666666666666664,0)" xlink:href="#l"/><use transform="matrix(0.1111111111111111,0,0,0.1111111111111111,51,0)" xlink:href="#n"/><use transform="matrix(0.1111111111111111,0,0,0.1111111111111111,79.77777777777777,0)" xlink:href="#o"/><use transform="matrix(0.1111111111111111,0,0,0.1111111111111111,90.88888888888889,0)" xlink:href="#j"/><use transform="matrix(0.1111111111111111,0,0,0.1111111111111111,119.66666666666666,0)" xlink:href="#h"/></g><path d="M266 0h-40l-56-210L115 0H75L2-248h35L96-30l15-64 43-154h32l59 218 59-218h35" id="p"/><path d="M143 0L79-87 56-68V0H24v-261h32v163l83-92h37l-77 82L181 0h-38" id="q"/><path d="M30-248c87 1 191-15 191 75 0 78-77 80-158 76V0H30v-248zm33 125c57 0 124 11 124-50 0-59-68-47-124-48v98" id="r"/><path d="M141-36C126-15 110 5 73 4 37 3 15-17 15-53c-1-64 63-63 125-63 3-35-9-54-41-54-24 1-41 7-42 31l-33-3c5-37 33-52 76-52 45 0 72 20 72 64v82c-1 20 7 32 28 27v20c-31 9-61-2-59-35zM48-53c0 20 12 33 32 33 41-3 63-29 60-74-43 2-92-5-92 41" id="s"/><path d="M59-47c-2 24 18 29 38 22v24C64 9 27 4 27-40v-127H5v-23h24l9-43h21v43h35v23H59v120" id="t"/><path d="M106-169C34-169 62-67 57 0H25v-261h32l-1 103c12-21 28-36 61-36 89 0 53 116 60 194h-32v-121c2-32-8-49-39-48" id="u"/><path d="M206 0h-36l-40-164L89 0H53L-1-190h32L70-26l43-164h34l41 164 42-164h31" id="v"/><path d="M179-190L93 31C79 59 56 82 12 73V49c39 6 53-20 64-50L1-190h34L92-34l54-156h33" id="w"/><g id="c"><use transform="matrix(0.1111111111111111,0,0,0.1111111111111111,0,0)" xlink:href="#p"/><use transform="matrix(0.1111111111111111,0,0,0.1111111111111111,37.666666666666664,0)" xlink:href="#f"/><use transform="matrix(0.1111111111111111,0,0,0.1111111111111111,46.44444444444444,0)" xlink:href="#q"/><use transform="matrix(0.1111111111111111,0,0,0.1111111111111111,66.44444444444444,0)" xlink:href="#f"/><use transform="matrix(0.1111111111111111,0,0,0.1111111111111111,75.22222222222221,0)" xlink:href="#r"/><use transform="matrix(0.1111111111111111,0,0,0.1111111111111111,101.88888888888889,0)" xlink:href="#s"/><use transform="matrix(0.1111111111111111,0,0,0.1111111111111111,124.1111111111111,0)" xlink:href="#t"/><use transform="matrix(0.1111111111111111,0,0,0.1111111111111111,135.22222222222223,0)" xlink:href="#u"/><use transform="matrix(0.1111111111111111,0,0,0.1111111111111111,157.44444444444446,0)" xlink:href="#v"/><use transform="matrix(0.1111111111111111,0,0,0.1111111111111111,186.22222222222223,0)" xlink:href="#s"/><use transform="matrix(0.1111111111111111,0,0,0.1111111111111111,208.44444444444446,0)" xlink:href="#w"/><use transform="matrix(0.1111111111111111,0,0,0.1111111111111111,228.44444444444449,0)" xlink:href="#g"/></g><path d="M84 4C-5 8 30-112 23-190h32v120c0 31 7 50 39 49 72-2 45-101 50-169h31l1 190h-30c-1-10 1-25-2-33-11 22-28 36-60 37" id="x"/><path d="M115-194c53 0 69 39 70 98 0 66-23 100-70 100C84 3 66-7 56-30L54 0H23l1-261h32v101c10-23 28-34 59-34zm-8 174c40 0 45-34 45-75 0-40-5-75-45-74-42 0-51 32-51 76 0 43 10 73 51 73" id="y"/><path d="M24 0v-261h32V0H24" id="z"/><path d="M96-169c-40 0-48 33-48 73s9 75 48 75c24 0 41-14 43-38l32 2c-6 37-31 61-74 61-59 0-76-41-82-99-10-93 101-131 147-64 4 7 5 14 7 22l-32 3c-4-21-16-35-41-35" id="A"/><path d="M100-194c62-1 85 37 85 99 1 63-27 99-86 99S16-35 15-95c0-66 28-99 85-99zM99-20c44 1 53-31 53-75 0-43-8-75-51-75s-53 32-53 75 10 74 51 75" id="B"/><path d="M117-194c89-4 53 116 60 194h-32v-121c0-31-8-49-39-48C34-167 62-67 57 0H25l-1-190h30c1 10-1 24 2 32 11-22 29-35 61-36" id="C"/><g id="d"><use transform="matrix(0.1111111111111111,0,0,0.1111111111111111,0,0)" xlink:href="#r"/><use transform="matrix(0.1111111111111111,0,0,0.1111111111111111,26.666666666666664,0)" xlink:href="#x"/><use transform="matrix(0.1111111111111111,0,0,0.1111111111111111,48.888888888888886,0)" xlink:href="#y"/><use transform="matrix(0.1111111111111111,0,0,0.1111111111111111,71.11111111111111,0)" xlink:href="#z"/><use transform="matrix(0.1111111111111111,0,0,0.1111111111111111,79.88888888888889,0)" xlink:href="#f"/><use transform="matrix(0.1111111111111111,0,0,0.1111111111111111,88.66666666666666,0)" xlink:href="#A"/><use transform="matrix(0.1111111111111111,0,0,0.1111111111111111,108.66666666666666,0)" xlink:href="#s"/><use transform="matrix(0.1111111111111111,0,0,0.1111111111111111,130.88888888888889,0)" xlink:href="#t"/><use transform="matrix(0.1111111111111111,0,0,0.1111111111111111,142,0)" xlink:href="#f"/><use transform="matrix(0.1111111111111111,0,0,0.1111111111111111,150.77777777777777,0)" xlink:href="#B"/><use transform="matrix(0.1111111111111111,0,0,0.1111111111111111,173,0)" xlink:href="#C"/></g></defs></g></svg>